<svg width="38" height="36" viewBox="0 0 38 36" fill="none" xmlns="http://www.w3.org/2000/svg">
<g clip-path="url(#clip0_1_98)">
<path d="M17.4883 1.82031C17.7871 1.94336 17.9981 2.21289 18.0508 2.52929L18.877 7.49219L23.8399 8.31836C24.1563 8.37109 24.4258 8.58203 24.5489 8.88086C24.6719 9.17969 24.6367 9.51953 24.4551 9.7832L22.1992 13.0059C22.0703 13 21.9414 12.9941 21.8067 12.9941C20.4414 12.9941 19.1641 13.3574 18.0567 13.9961V13.9316C18.0567 10.8262 15.5371 8.30664 12.4317 8.30664C9.3262 8.30664 6.80667 10.8262 6.80667 13.9316C6.80667 17.0371 9.3262 19.5566 12.4317 19.5566C12.9063 19.5566 13.3633 19.498 13.8028 19.3867C11.6582 20.4473 10.0938 22.498 9.71292 24.9473L8.28323 25.9434C8.01956 26.1309 7.67972 26.166 7.38089 26.0371C7.08206 25.9082 6.87112 25.6445 6.81839 25.3281L5.99808 20.377L1.03518 19.5508C0.718778 19.498 0.449247 19.2871 0.3262 18.9883C0.203153 18.6895 0.23831 18.3496 0.41995 18.0859L3.3262 13.9375L0.41995 9.78906C0.23245 9.52539 0.197294 9.18554 0.3262 8.88672C0.455106 8.58789 0.718778 8.37695 1.03518 8.32422L5.99808 7.49804L6.82425 2.53515C6.87698 2.21875 7.08792 1.94922 7.38675 1.82617C7.68558 1.70312 8.02542 1.73828 8.28909 1.91992L12.4375 4.82617L16.586 1.91992C16.8496 1.73242 17.1895 1.69726 17.4883 1.82617V1.82031ZM8.68753 13.9375C8.68753 12.9429 9.08262 11.9891 9.78588 11.2858C10.4891 10.5826 11.443 10.1875 12.4375 10.1875C13.4321 10.1875 14.3859 10.5826 15.0892 11.2858C15.7924 11.9891 16.1875 12.9429 16.1875 13.9375C16.1875 14.9321 15.7924 15.8859 15.0892 16.5891C14.3859 17.2924 13.4321 17.6875 12.4375 17.6875C11.443 17.6875 10.4891 17.2924 9.78588 16.5891C9.08262 15.8859 8.68753 14.9321 8.68753 13.9375ZM37.7442 27.0566C37.7442 29.6465 35.6465 31.7441 33.0567 31.7441H17.125C14.0196 31.7441 11.5 29.2246 11.5 26.1191C11.5 23.3301 13.5274 21.0215 16.1875 20.5762V20.5C16.1875 17.3945 18.7071 14.875 21.8125 14.875C23.8574 14.875 25.6446 15.9648 26.6289 17.5937C27.3907 17.0605 28.3164 16.75 29.3125 16.75C31.9024 16.75 34 18.8477 34 21.4375C34 21.7832 33.9649 22.123 33.8887 22.4453C36.0801 22.8379 37.7442 24.7539 37.7442 27.0566Z" fill="#FEF08A"/>
</g>
<defs>
<clipPath id="clip0_1_98">
<path d="M0.25 1.75H37.75V31.75H0.25V1.75Z" fill="white"/>
</clipPath>
</defs>
</svg>
