<svg width="38" height="31" viewBox="0 0 38 31" fill="none" xmlns="http://www.w3.org/2000/svg">
<path d="M3 17.7857C3 22.0446 6.42656 25.5 10.65 25.5H30.2C33.9559 25.5 37 22.4304 37 18.6429C37 15.3268 34.6625 12.5571 31.56 11.925C31.7778 11.3518 31.9 10.725 31.9 10.0714C31.9 7.23214 29.6156 4.92857 26.8 4.92857C25.7534 4.92857 24.7759 5.25 23.9684 5.79643C22.4969 3.225 19.7503 1.5 16.6 1.5C11.9038 1.5 8.1 5.33571 8.1 10.0714C8.1 10.2161 8.10531 10.3607 8.11062 10.5054C5.13562 11.5607 3 14.4214 3 17.7857Z" fill="#DBDAD1"/>
</svg>
