<svg width="19" height="24" viewBox="0 0 19 24" fill="none" xmlns="http://www.w3.org/2000/svg">
<path d="M9.98438 24C5.01562 24 0.984375 19.9688 0.984375 15C0.984375 10.725 7.0875 2.70469 8.79375 0.548437C9.075 0.196875 9.49219 0 9.94219 0H10.0266C10.4766 0 10.8937 0.196875 11.175 0.548437C12.8812 2.70469 18.9844 10.725 18.9844 15C18.9844 19.9688 14.9531 24 9.98438 24ZM5.48438 15.75C5.48438 15.3375 5.14687 15 4.73438 15C4.32188 15 3.98438 15.3375 3.98438 15.75C3.98438 18.6516 6.33281 21 9.23438 21C9.64688 21 9.98438 20.6625 9.98438 20.25C9.98438 19.8375 9.64688 19.5 9.23438 19.5C7.1625 19.5 5.48438 17.8219 5.48438 15.75Z" fill="white" fill-opacity="0.8"/>
</svg>
