<svg width="38" height="31" viewBox="0 0 38 31" fill="none" xmlns="http://www.w3.org/2000/svg">
<g clip-path="url(#clip0_2_1646)">
<path d="M17.2383 0.320341C17.5371 0.443388 17.7481 0.712919 17.8008 1.02933L18.627 5.99222L23.5899 6.81839C23.9063 6.87112 24.1758 7.08206 24.2989 7.38089C24.4219 7.67972 24.3867 8.01956 24.2051 8.28323L21.9492 11.5059C21.8203 11.5 21.6914 11.4942 21.5567 11.4942C20.1914 11.4942 18.9141 11.8575 17.8067 12.4961V12.4317C17.8067 9.3262 15.2871 6.80667 12.1817 6.80667C9.0762 6.80667 6.55667 9.3262 6.55667 12.4317C6.55667 15.5371 9.0762 18.0567 12.1817 18.0567C12.6563 18.0567 13.1133 17.9981 13.5528 17.8867C11.4082 18.9473 9.84378 20.9981 9.46292 23.4473L8.03323 24.4434C7.76956 24.6309 7.42972 24.666 7.13089 24.5371C6.83206 24.4082 6.62112 24.1446 6.56839 23.8282L5.74808 18.877L0.785185 18.0508C0.468778 17.9981 0.199247 17.7871 0.0762002 17.4883C-0.0468466 17.1895 -0.0116904 16.8496 0.16995 16.586L3.0762 12.4375L0.16995 8.28909C-0.0175497 8.02542 -0.052706 7.68558 0.0762002 7.38675C0.205106 7.08792 0.468778 6.87698 0.785185 6.82425L5.74808 5.99808L6.57425 1.03518C6.62698 0.718778 6.83792 0.449247 7.13675 0.3262C7.43558 0.203153 7.77542 0.23831 8.03909 0.41995L12.1875 3.3262L16.336 0.41995C16.5996 0.23245 16.9395 0.197294 17.2383 0.3262V0.320341ZM8.43753 12.4375C8.43753 11.443 8.83262 10.4891 9.53588 9.78588C10.2391 9.08262 11.193 8.68753 12.1875 8.68753C13.1821 8.68753 14.1359 9.08262 14.8392 9.78588C15.5424 10.4891 15.9375 11.443 15.9375 12.4375C15.9375 13.4321 15.5424 14.3859 14.8392 15.0892C14.1359 15.7924 13.1821 16.1875 12.1875 16.1875C11.193 16.1875 10.2391 15.7924 9.53588 15.0892C8.83262 14.3859 8.43753 13.4321 8.43753 12.4375ZM37.4942 25.5567C37.4942 28.1465 35.3965 30.2442 32.8067 30.2442H16.875C13.7696 30.2442 11.25 27.7246 11.25 24.6192C11.25 21.8301 13.2774 19.5215 15.9375 19.0762V19C15.9375 15.8946 18.4571 13.375 21.5625 13.375C23.6074 13.375 25.3946 14.4649 26.3789 16.0938C27.1407 15.5606 28.0664 15.25 29.0625 15.25C31.6524 15.25 33.75 17.3477 33.75 19.9375C33.75 20.2832 33.7149 20.6231 33.6387 20.9453C35.8301 21.3379 37.4942 23.2539 37.4942 25.5567Z" fill="white" />
</g>
<defs>
<clipPath id="clip0_2_1646">
<path d="M0 0.25H37.5V30.25H0V0.25Z" fill="white"/>
</clipPath>
</defs>
</svg>
