<svg width="15" height="24" viewBox="0 0 15 24" fill="none" xmlns="http://www.w3.org/2000/svg">
<path d="M7.32812 3C6.08594 3 5.07812 4.00781 5.07812 5.25V12.9609C5.07812 13.7719 4.74531 14.4562 4.36094 14.9531C3.86875 15.5906 3.57812 16.3828 3.57812 17.25C3.57812 19.3219 5.25625 21 7.32812 21C9.4 21 11.0781 19.3219 11.0781 17.25C11.0781 16.3828 10.7875 15.5906 10.2953 14.9578C9.91094 14.4609 9.57812 13.7766 9.57812 12.9656V5.25C9.57812 4.00781 8.57031 3 7.32812 3ZM2.07812 5.25C2.07812 2.35313 4.42656 0 7.32812 0C10.2297 0 12.5781 2.34844 12.5781 5.25V12.9609C12.5781 12.9656 12.5828 12.975 12.5875 12.9891C12.5969 13.0172 12.625 13.0641 12.6672 13.1203C13.5531 14.2641 14.0781 15.6984 14.0781 17.25C14.0781 20.9766 11.0547 24 7.32812 24C3.60156 24 0.578125 20.9766 0.578125 17.25C0.578125 15.6937 1.10312 14.2594 1.98906 13.1203C2.03125 13.0641 2.05937 13.0172 2.06875 12.9891C2.07344 12.975 2.07812 12.9656 2.07812 12.9609V5.25ZM9.57812 17.25C9.57812 18.4922 8.57031 19.5 7.32812 19.5C6.08594 19.5 5.07812 18.4922 5.07812 17.25C5.07812 16.2703 5.70625 15.4359 6.57812 15.1266V9.75C6.57812 9.3375 6.91562 9 7.32812 9C7.74063 9 8.07812 9.3375 8.07812 9.75V15.1266C8.95 15.4359 9.57812 16.2703 9.57812 17.25Z" fill="white" fill-opacity="0.8"/>
</svg>
