<svg width="30" height="31" viewBox="0 0 30 31" fill="none" xmlns="http://www.w3.org/2000/svg">
<g clip-path="url(#clip0_2_1642)">
<path d="M5.625 19.25C2.51953 19.25 0 16.7305 0 13.625C0 11.1348 1.61719 9.01953 3.86133 8.28125C3.79102 7.88867 3.75 7.47852 3.75 7.0625C3.75 3.43555 6.68555 0.5 10.3125 0.5C12.8379 0.5 15.0293 1.92383 16.125 4.01562C16.9863 3.01367 18.2637 2.375 19.6875 2.375C22.2773 2.375 24.375 4.47266 24.375 7.0625C24.375 7.38477 24.3398 7.69531 24.2812 8C24.3105 8 24.3457 8 24.375 8C27.4805 8 30 10.5195 30 13.625C30 16.7305 27.4805 19.25 24.375 19.25H5.625ZM5.22656 22.2969C5.30273 22.1504 5.45508 22.0625 5.625 22.0625C5.79492 22.0625 5.94141 22.1504 6.02344 22.2969L8.08008 26.082C8.32031 26.5215 8.44336 27.0078 8.44336 27.5059V27.6816C8.44336 29.2344 7.18359 30.4941 5.63086 30.4941C4.07812 30.4941 2.81836 29.2344 2.81836 27.6816V27.5059C2.81836 27.0078 2.94141 26.5156 3.18164 26.082L5.22656 22.2969ZM14.6016 22.2969C14.6777 22.1504 14.8301 22.0625 15 22.0625C15.1699 22.0625 15.3164 22.1504 15.3984 22.2969L17.4551 26.082C17.6953 26.5215 17.8184 27.0078 17.8184 27.5059V27.6816C17.8184 29.2344 16.5586 30.4941 15.0059 30.4941C13.4531 30.4941 12.1934 29.2344 12.1934 27.6816V27.5059C12.1934 27.0078 12.3164 26.5156 12.5566 26.082L14.6016 22.2969ZM21.9199 26.082L23.9766 22.2969C24.0527 22.1504 24.2051 22.0625 24.375 22.0625C24.5449 22.0625 24.6914 22.1504 24.7734 22.2969L26.8301 26.082C27.0703 26.5215 27.1934 27.0078 27.1934 27.5059V27.6816C27.1934 29.2344 25.9336 30.4941 24.3809 30.4941C22.8281 30.4941 21.5684 29.2344 21.5684 27.6816V27.5059C21.5684 27.0078 21.6914 26.5156 21.9316 26.082H21.9199Z" fill="#93C5FD"/>
</g>
<defs>
<clipPath id="clip0_2_1642">
<path d="M0 0.5H30V30.5H0V0.5Z" fill="white"/>
</clipPath>
</defs>
</svg>
