<svg width="30" height="31" viewBox="0 0 30 31" fill="none" xmlns="http://www.w3.org/2000/svg">
<g clip-path="url(#clip0_2_1634)">
<path d="M21.1807 1.07247C21.4737 1.1955 21.6846 1.45913 21.7432 1.76964L22.909 8.09099L29.2304 9.25098C29.5409 9.30956 29.8045 9.52047 29.9275 9.81339C30.0506 10.1063 30.0154 10.4403 29.8338 10.7039L26.1839 16L29.8338 21.2903C30.0154 21.5539 30.0506 21.8878 29.9275 22.1807C29.8045 22.4737 29.5409 22.6846 29.2304 22.7432L22.909 23.909L21.7432 30.2304C21.6846 30.5409 21.4737 30.8045 21.1807 30.9275C20.8878 31.0506 20.5539 31.0154 20.2903 30.8338L15 27.1839L9.70975 30.8338C9.44612 31.0154 9.11218 31.0506 8.81925 30.9275C8.52633 30.8045 8.31542 30.5409 8.25683 30.2304L7.09099 23.909L0.769636 22.7432C0.459134 22.6846 0.1955 22.4737 0.0724714 22.1807C-0.0505577 21.8878 -0.0154065 21.5539 0.166208 21.2903L3.81607 16L0.166208 10.7097C-0.0154065 10.4461 -0.0505577 10.1122 0.0724714 9.81925C0.1955 9.52633 0.459134 9.31542 0.769636 9.25683L7.09099 8.09099L8.25683 1.76964C8.31542 1.45913 8.52633 1.1955 8.81925 1.07247C9.11218 0.949442 9.44612 0.984593 9.70975 1.16621L15 4.81607L20.2903 1.16621C20.5539 0.984593 20.8878 0.949442 21.1807 1.07247ZM9.37581 16C9.37581 14.5084 9.96836 13.0778 11.0231 12.0231C12.0778 10.9684 13.5084 10.3758 15 10.3758C16.4916 10.3758 17.9222 10.9684 18.9769 12.0231C20.0316 13.0778 20.6242 14.5084 20.6242 16C20.6242 17.4916 20.0316 18.9222 18.9769 19.9769C17.9222 21.0316 16.4916 21.6242 15 21.6242C13.5084 21.6242 12.0778 21.0316 11.0231 19.9769C9.96836 18.9222 9.37581 17.4916 9.37581 16ZM22.4989 16C22.4989 14.0112 21.7089 12.1038 20.3025 10.6975C18.8962 9.29115 16.9888 8.50108 15 8.50108C13.0112 8.50108 11.1038 9.29115 9.69747 10.6975C8.29115 12.1038 7.50108 14.0112 7.50108 16C7.50108 17.9888 8.29115 19.8962 9.69747 21.3025C11.1038 22.7089 13.0112 23.4989 15 23.4989C16.9888 23.4989 18.8962 22.7089 20.3025 21.3025C21.7089 19.8962 22.4989 17.9888 22.4989 16Z" fill="#fde074"/>
</g>
<defs>
<clipPath id="clip0_2_1634">
<path d="M0 0.5H30V30.5H0V0.5Z" fill="white"/>
</clipPath>
</defs>
</svg>


