<svg width="28" height="22" viewBox="0 0 28 22" fill="none" xmlns="http://www.w3.org/2000/svg">
<path d="M13.9844 0.5C10.1969 0.5 7.16405 2.225 4.95624 4.27812C2.76249 6.3125 1.2953 8.75 0.60155 10.4234C0.446863 10.7937 0.446863 11.2062 0.60155 11.5766C1.2953 13.25 2.76249 15.6875 4.95624 17.7219C7.16405 19.775 10.1969 21.5 13.9844 21.5C17.7719 21.5 20.8047 19.775 23.0125 17.7219C25.2062 15.6828 26.6734 13.25 27.3719 11.5766C27.5265 11.2062 27.5265 10.7937 27.3719 10.4234C26.6734 8.75 25.2062 6.3125 23.0125 4.27812C20.8047 2.225 17.7719 0.5 13.9844 0.5ZM7.23436 11C7.23436 9.20979 7.94552 7.4929 9.21139 6.22703C10.4773 4.96116 12.1942 4.25 13.9844 4.25C15.7746 4.25 17.4915 4.96116 18.7573 6.22703C20.0232 7.4929 20.7344 9.20979 20.7344 11C20.7344 12.7902 20.0232 14.5071 18.7573 15.773C17.4915 17.0388 15.7746 17.75 13.9844 17.75C12.1942 17.75 10.4773 17.0388 9.21139 15.773C7.94552 14.5071 7.23436 12.7902 7.23436 11ZM13.9844 8C13.9844 9.65469 12.6391 11 10.9844 11C10.6516 11 10.3328 10.9437 10.0328 10.8453C9.77499 10.7609 9.47499 10.9203 9.48436 11.1922C9.49843 11.5156 9.5453 11.8391 9.63436 12.1625C10.2766 14.5625 12.7469 15.9875 15.1469 15.3453C17.5469 14.7031 18.9719 12.2328 18.3297 9.83281C17.8094 7.8875 16.0891 6.57969 14.1766 6.5C13.9047 6.49062 13.7453 6.78594 13.8297 7.04844C13.9281 7.34844 13.9844 7.66719 13.9844 8Z" fill="white" fill-opacity="0.8"/>
</svg>
