<svg width="25" height="24" viewBox="0 0 25 24" fill="none" xmlns="http://www.w3.org/2000/svg">
<path d="M13.8281 1.5C13.8281 2.32969 14.4984 3 15.3281 3H16.8281C17.6578 3 18.3281 3.67031 18.3281 4.5C18.3281 5.32969 17.6578 6 16.8281 6H1.82812C0.998437 6 0.328125 6.67031 0.328125 7.5C0.328125 8.32969 0.998437 9 1.82812 9H16.8281C19.3125 9 21.3281 6.98438 21.3281 4.5C21.3281 2.01562 19.3125 0 16.8281 0H15.3281C14.4984 0 13.8281 0.670312 13.8281 1.5ZM16.8281 18C16.8281 18.8297 17.4984 19.5 18.3281 19.5H19.8281C22.3125 19.5 24.3281 17.4844 24.3281 15C24.3281 12.5156 22.3125 10.5 19.8281 10.5H1.82812C0.998437 10.5 0.328125 11.1703 0.328125 12C0.328125 12.8297 0.998437 13.5 1.82812 13.5H19.8281C20.6578 13.5 21.3281 14.1703 21.3281 15C21.3281 15.8297 20.6578 16.5 19.8281 16.5H18.3281C17.4984 16.5 16.8281 17.1703 16.8281 18ZM6.32812 24H7.82812C10.3125 24 12.3281 21.9844 12.3281 19.5C12.3281 17.0156 10.3125 15 7.82812 15H1.82812C0.998437 15 0.328125 15.6703 0.328125 16.5C0.328125 17.3297 0.998437 18 1.82812 18H7.82812C8.65781 18 9.32812 18.6703 9.32812 19.5C9.32812 20.3297 8.65781 21 7.82812 21H6.32812C5.49844 21 4.82812 21.6703 4.82812 22.5C4.82812 23.3297 5.49844 24 6.32812 24Z" fill="white" fill-opacity="0.8"/>
</svg>
